<svg xmlns="http://www.w3.org/2000/svg" viewBox="0 0 188 40" role="img" aria-label="YUNHE AI 云鹤智元">
  <defs>
    <clipPath id="yunhe-wordmark-clip">
      <circle cx="21" cy="20" r="17.5"/>
    </clipPath>
  </defs>
  <circle cx="21" cy="20" r="17.5" fill="#FFFFFF" stroke="#2F55FF" stroke-width="2.1"/>
  <g clip-path="url(#yunhe-wordmark-clip)" fill="none" stroke="#2F55FF" stroke-linecap="round" stroke-linejoin="round">
    <path d="M5.4 26.5c8.8-1 14.9-5.5 19.6-13.9" stroke-width="2"/>
    <path d="M13 26.5c5.5-5 7.7-11.1 7.8-20.4" stroke-width="1.35"/>
    <path d="M15 24.8c2.1-5.8 3.1-11.4 3-16.8" stroke-width="1.15"/>
    <path d="M16.8 23c1.2-4.7 1.6-9.5 1.3-14.5" stroke-width="1"/>
    <path d="M9.3 24c6.3 1.4 13 0.1 20.5-4" stroke-width="1.55"/>
    <path d="M10.6 28.4c9-0.8 16.8-3.5 22.9-8.2" stroke-width="1.45"/>
    <path d="M25.4 13.2c2.1 3.5 4.8 5.5 8.2 5.9" stroke-width="1.35"/>
  </g>
  <path d="M6 29.2c12 0.9 21.3-2.7 29.4-10.6" fill="none" stroke="#2F55FF" stroke-linecap="round" stroke-width="1.6"/>
  <text x="47" y="21" fill="#2F55FF" font-family="Inter, Arial, Helvetica, sans-serif" font-size="16.5" font-weight="800" letter-spacing="1.7">YUNHE AI</text>
  <text x="49" y="34" fill="#9CA3AF" font-family="Noto Sans SC, PingFang SC, Microsoft YaHei, sans-serif" font-size="9.6" font-weight="500" letter-spacing="5.6">云鹤智元</text>
</svg>
