<svg xmlns="http://www.w3.org/2000/svg" viewBox="0 0 64 64" role="img" aria-label="云鹤智元">
  <defs>
    <clipPath id="yunhe-icon-clip">
      <circle cx="32" cy="32" r="27"/>
    </clipPath>
  </defs>
  <circle cx="32" cy="32" r="27" fill="#FFFFFF" stroke="#2F55FF" stroke-width="3"/>
  <g clip-path="url(#yunhe-icon-clip)" fill="none" stroke="#2F55FF" stroke-linecap="round" stroke-linejoin="round">
    <path d="M10 42c13.5-1.5 22.8-8.4 30-21.2" stroke-width="3.2"/>
    <path d="M21.5 42c8.4-7.6 11.8-17 12-31.2" stroke-width="2.1"/>
    <path d="M24.5 39.5c3.2-8.9 4.7-17.5 4.5-25.8" stroke-width="1.8"/>
    <path d="M27.2 36.8c1.8-7.2 2.5-14.6 2-22.2" stroke-width="1.5"/>
    <path d="M16 38.5c9.6 2.1 19.8 0.2 31.2-6" stroke-width="2.4"/>
    <path d="M18 45.2c13.8-1.2 25.7-5.4 35-12.5" stroke-width="2.2"/>
    <path d="M40.5 21.8c3.2 5.4 7.4 8.4 12.5 9" stroke-width="2.1"/>
  </g>
  <path d="M11 45.5c18.3 1.4 32.6-4.1 45-16.2" fill="none" stroke="#2F55FF" stroke-linecap="round" stroke-width="2.4"/>
</svg>
